<svg width="48" height="48" viewBox="0 0 48 48" fill="none" xmlns="http://www.w3.org/2000/svg">
<path d="M40.5 4H7.5C5.567 4 4 5.567 4 7.5V39.5C4 41.433 5.567 43 7.5 43H40.5C42.433 43 44 41.433 44 39.5V7.5C44 5.567 42.433 4 40.5 4Z" fill="#401D4B"/>
<path d="M40 5H8C6.34315 5 5 6.34315 5 8V37C5 38.6569 6.34315 40 8 40H40C41.6569 40 43 38.6569 43 37V8C43 6.34315 41.6569 5 40 5Z" fill="#813B96"/>
<path d="M33 15C33 16.1046 32.1046 17 31 17V18H30V16H31C31.5523 16 32 15.5523 32 15C32 14.4477 31.5523 14 31 14C30.4477 14 30 14.4477 30 15H29C29 13.8954 29.8954 13 31 13C32.1046 13 33 13.8954 33 15Z" fill="white"/>
<path d="M31.0001 19.0001C30.7239 18.7239 30.2762 18.7239 30.0001 19.0001C29.7239 19.2762 29.7239 19.7239 30.0001 20.0001C30.2762 20.2762 30.7239 20.2762 31.0001 20.0001C31.2762 19.7239 31.2762 19.2762 31.0001 19.0001Z" fill="white"/>
<path d="M28.0003 19.9221C28.0003 17.756 26.2094 16 24.0003 16C21.7912 16 20.0003 17.756 20.0003 19.9221C20.0003 22.0881 21.7912 23.8441 24.0003 23.8441C26.2094 23.8441 28.0003 22.0881 28.0003 19.9221Z" fill="white"/>
<path d="M32 31.6927C32 31.6927 31.9997 26.0231 24 26.0274C15.9997 26.0318 16 31.6927 16 31.6927V33H32V31.6927Z" fill="white"/>
</svg>
