<svg width="16" height="16" viewBox="0 0 16 16" fill="none" xmlns="http://www.w3.org/2000/svg">
<path d="M12.5 1H4.5C3.11929 1 2 2.11929 2 3.5V12.5C2 13.8807 3.11929 15 4.5 15H12.5C13.8807 15 15 13.8807 15 12.5V3.5C15 2.11929 13.8807 1 12.5 1Z" fill="#401D4B"/>
<path d="M12 2H5C3.89543 2 3 2.89543 3 4V12C3 13.1046 3.89543 14 5 14H12C13.1046 14 14 13.1046 14 12V4C14 2.89543 13.1046 2 12 2Z" fill="#813B96"/>
<path d="M9 9C10.1046 9 11 8.10457 11 7C11 5.89543 10.1046 5 9 5C7.89543 5 7 5.89543 7 7H8C8 6.44772 8.44772 6 9 6C9.55228 6 10 6.44772 10 7C10 7.55228 9.55228 8 9 8H8V10H9V9Z" fill="white"/>
<path d="M8.00008 11.0001C8.27622 10.7239 8.72393 10.7239 9.00008 11.0001C9.27622 11.2762 9.27622 11.7239 9.00008 12.0001C8.72393 12.2762 8.27622 12.2762 8.00008 12.0001C7.72393 11.7239 7.72393 11.2762 8.00008 11.0001Z" fill="white"/>
</svg>
