<svg width="32" height="32" viewBox="0 0 32 32" fill="none" xmlns="http://www.w3.org/2000/svg">
<path d="M26.5 3H5.5C4.11929 3 3 4.11929 3 5.5V26.5C3 27.8807 4.11929 29 5.5 29H26.5C27.8807 29 29 27.8807 29 26.5V5.5C29 4.11929 27.8807 3 26.5 3Z" fill="#401D4B"/>
<path d="M26 4H6C4.89543 4 4 4.89543 4 6V25C4 26.1046 4.89543 27 6 27H26C27.1046 27 28 26.1046 28 25V6C28 4.89543 27.1046 4 26 4Z" fill="#813B96"/>
<path d="M21 14C22.1046 14 23 13.1046 23 12C23 10.8954 22.1046 10 21 10C19.8954 10 19 10.8954 19 12H20C20 11.4477 20.4477 11 21 11C21.5523 11 22 11.4477 22 12C22 12.5523 21.5523 13 21 13H20V15H21V14Z" fill="white"/>
<path d="M20.0001 16.0001C20.2762 15.7239 20.7239 15.7239 21.0001 16.0001C21.2762 16.2762 21.2762 16.7239 21.0001 17.0001C20.7239 17.2762 20.2762 17.2762 20.0001 17.0001C19.7239 16.7239 19.7239 16.2762 20.0001 16.0001Z" fill="white"/>
<path d="M15.0002 11C16.6571 11 18.0002 12.3429 18.0002 13.9992C18.0002 15.6556 16.6571 16.9985 15.0002 16.9985C13.3434 16.9985 12.0002 15.6556 12.0002 13.9992C12.0002 12.3429 13.3434 11 15.0002 11ZM15.0002 18.9979C21 18.9949 21 23.0003 21 23.0003V24H9V23.0003C9 23.0003 8.99998 19.0013 15.0002 18.9979Z" fill="white"/>
</svg>
