<svg width="64" height="64" viewBox="0 0 64 64" fill="none" xmlns="http://www.w3.org/2000/svg">
<path d="M53.5 6H10.5C8.01472 6 6 8.01472 6 10.5V53.5C6 55.9853 8.01472 58 10.5 58H53.5C55.9853 58 58 55.9853 58 53.5V10.5C58 8.01472 55.9853 6 53.5 6Z" fill="#401D4B"/>
<path d="M53 7H11C8.79086 7 7 8.79086 7 11V51C7 53.2091 8.79086 55 11 55H53C55.2091 55 57 53.2091 57 51V11C57 8.79086 55.2091 7 53 7Z" fill="#813B96"/>
<path fill-rule="evenodd" clip-rule="evenodd" d="M47 24C47 28.4183 43.4183 32 39 32C34.5817 32 31 28.4183 31 24C31 19.5817 34.5817 16 39 16C43.4183 16 47 19.5817 47 24ZM42.07 23.25L41.17 24.17C40.45 24.9 40 25.5 40 27H38V26.5C38 25.4 38.45 24.4 39.17 23.67L40.41 22.41C40.78 22.05 41 21.55 41 21C41 19.9 40.1 19 39 19C37.9 19 37 19.9 37 21H35C35 18.79 36.79 17 39 17C41.21 17 43 18.79 43 21C43 21.88 42.64 22.68 42.07 23.25ZM38 30V28H40V30H38Z" fill="white"/>
<path d="M30.0003 32.9221C30.0003 30.756 28.2094 29 26.0003 29C23.7912 29 22.0003 30.756 22.0003 32.9221C22.0003 35.0881 23.7912 36.8441 26.0003 36.8441C28.2094 36.8441 30.0003 35.0881 30.0003 32.9221Z" fill="white"/>
<path d="M34 44.6927C34 44.6927 33.9997 39.0231 26 39.0274C17.9997 39.0318 18 44.6927 18 44.6927V46H34V44.6927Z" fill="white"/>
</svg>
