<svg width="16" height="17" viewBox="0 0 16 17" fill="none" xmlns="http://www.w3.org/2000/svg">
<path d="M15 3C15 4.10457 14.1046 5 13 5V6H12V4H13C13.5523 4 14 3.55228 14 3C14 2.44772 13.5523 2 13 2C12.4477 2 12 2.44772 12 3H11C11 1.89543 11.8954 1 13 1C14.1046 1 15 1.89543 15 3Z" fill="#4C5263"/>
<path d="M13.0001 7.00008C12.7239 6.72393 12.2762 6.72393 12.0001 7.00008C11.7239 7.27622 11.7239 7.72393 12.0001 8.00008C12.2762 8.27622 12.7239 8.27622 13.0001 8.00008C13.2762 7.72393 13.2762 7.27622 13.0001 7.00008Z" fill="#4C5263"/>
<path d="M10.0002 4.99923C10.0002 3.34285 8.65707 2 7.00021 2C5.34335 2 4.00021 3.34285 4.00021 4.99923C4.00021 6.6556 5.34335 7.99845 7.00021 7.99845C8.65707 7.99845 10.0002 6.6556 10.0002 4.99923Z" fill="#4C5263"/>
<path d="M13 14.0003C13 14.0003 13 9.99494 7.00021 9.99793C0.999984 10.0013 1 14.0003 1 14.0003V15H13V14.0003Z" fill="#4C5263"/>
</svg>
