<svg width="128" height="128" viewBox="0 0 128 128" fill="none" xmlns="http://www.w3.org/2000/svg">
<path d="M107.5 11H20.5C15.8056 11 12 14.8056 12 19.5V106.5C12 111.194 15.8056 115 20.5 115H107.5C112.194 115 116 111.194 116 106.5V19.5C116 14.8056 112.194 11 107.5 11Z" fill="#401D4B"/>
<path d="M107 12H21C16.5817 12 13 15.5817 13 20V103C13 107.418 16.5817 111 21 111H107C111.418 111 115 107.418 115 103V20C115 15.5817 111.418 12 107 12Z" fill="#813B96"/>
<path fill-rule="evenodd" clip-rule="evenodd" d="M93 46.5C93 55.0604 86.0604 62 77.5 62C68.9396 62 62 55.0604 62 46.5C62 37.9396 68.9396 31 77.5 31C86.0604 31 93 37.9396 93 46.5ZM75.5 57.0047V54.0047H78.5V57.0047H75.5ZM81.605 45.3797L80.255 46.7597C79.175 47.8547 78.5 48.7547 78.5 51.0047H75.5V50.2547C75.5 48.6047 76.175 47.1047 77.255 46.0097L79.115 44.1197C79.67 43.5797 80 42.8297 80 42.0047C80 40.3547 78.65 39.0047 77 39.0047C75.35 39.0047 74 40.3547 74 42.0047H71C71 38.6897 73.685 36.0047 77 36.0047C80.315 36.0047 83 38.6897 83 42.0047C83 43.3247 82.46 44.5247 81.605 45.3797Z" fill="white"/>
<path d="M61 63.7717C61 58.93 57.3332 55.0047 52.5007 55.0047C47.6682 55.0047 44 58.93 44 63.7717C44 68.6134 47.6682 72.0047 52.5007 72.0047C57.3332 72.0047 61 68.6134 61 63.7717Z" fill="white"/>
<path d="M70 90.0824C70 90.0824 70 77.9959 52.5007 78.0047C35 78.0145 35 90.0824 35 90.0824V93.0047H70V90.0824Z" fill="white"/>
</svg>
