<svg width="24" height="24" viewBox="0 0 24 24" fill="none" xmlns="http://www.w3.org/2000/svg">
<path d="M20.5 1H3.5C2.11929 1 1 2.11929 1 3.5V20.5C1 21.8807 2.11929 23 3.5 23H20.5C21.8807 23 23 21.8807 23 20.5V3.5C23 2.11929 21.8807 1 20.5 1Z" fill="#401D4B"/>
<path d="M20 2H4C2.89543 2 2 2.89543 2 4V20C2 21.1046 2.89543 22 4 22H20C21.1046 22 22 21.1046 22 20V4C22 2.89543 21.1046 2 20 2Z" fill="#813B96"/>
<path d="M17 9C18.1046 9 19 8.10457 19 7C19 5.89543 18.1046 5 17 5C15.8954 5 15 5.89543 15 7H16C16 6.44772 16.4477 6 17 6C17.5523 6 18 6.44772 18 7C18 7.55228 17.5523 8 17 8H16V10H17V9Z" fill="white"/>
<path d="M16.0001 11.0001C16.2762 10.7239 16.7239 10.7239 17.0001 11.0001C17.2762 11.2762 17.2762 11.7239 17.0001 12.0001C16.7239 12.2762 16.2762 12.2762 16.0001 12.0001C15.7239 11.7239 15.7239 11.2762 16.0001 11.0001Z" fill="white"/>
<path d="M11.0002 6C12.6571 6 14.0002 7.34285 14.0002 8.99923C14.0002 10.6556 12.6571 11.9985 11.0002 11.9985C9.34335 11.9985 8.00021 10.6556 8.00021 8.99923C8.00021 7.34285 9.34335 6 11.0002 6ZM11.0002 13.9979C17 13.9949 17 18.0003 17 18.0003V19H5V18.0003C5 18.0003 4.99998 14.0013 11.0002 13.9979Z" fill="white"/>
</svg>
