<?xml version="1.0" encoding="UTF-8" standalone="no"?>
<svg
   viewBox="0 0 995.64794 995.6505"
   version="1.1"
   id="svg17"
   sodipodi:docname="system76.svg"
   width="995.64795"
   height="995.65051"
   inkscape:version="1.1.1 (3bf5ae0d25, 2021-09-20)"
   xmlns:inkscape="http://www.inkscape.org/namespaces/inkscape"
   xmlns:sodipodi="http://sodipodi.sourceforge.net/DTD/sodipodi-0.dtd"
   xmlns="http://www.w3.org/2000/svg"
   xmlns:svg="http://www.w3.org/2000/svg">
  <sodipodi:namedview
     id="namedview19"
     pagecolor="#ffffff"
     bordercolor="#666666"
     borderopacity="1.0"
     inkscape:pageshadow="2"
     inkscape:pageopacity="0.0"
     inkscape:pagecheckerboard="0"
     showgrid="false"
     inkscape:zoom="0.78892808"
     inkscape:cx="453.1465"
     inkscape:cy="689.54321"
     inkscape:window-width="1920"
     inkscape:window-height="1011"
     inkscape:window-x="0"
     inkscape:window-y="32"
     inkscape:window-maximized="1"
     inkscape:current-layer="svg17" />
  <defs
     id="defs4">
    <style
       id="style2">.cls-1{fill:#585048;}.cls-2{fill:#fff;}.cls-3{fill:#faa41a;}</style>
  </defs>
  <g
     id="secondary"
     transform="translate(-5.7350921,-5.5683349)">
    <path
       class="cls-1"
       d="m 788.148,95.478 -1.354,4.086 c -9.669,17.97 -122.024,221.121 -159.223,288.384 -8.309,15.023 -13.428,24.281 -13.646,24.684 -31.264,53.988 -45.61,114.763 -38.38,162.578 a 156.61,156.61 0 0 0 27.247,67.4 162.391,162.391 0 0 0 105.81,66.1 c 4.388,0.746 8.87,1.322 13.326,1.716 4.954,0.442 9.988,0.664 14.959,0.664 a 165.165,165.165 0 0 0 99.754,-33.08 157.311,157.311 0 0 0 61.433,-100.065 c 7.113,-42.268 -3.2,-84.882 -29.056,-120 A 166.542,166.542 0 0 0 761.84,392.369 c -2.393,-0.4 -4.857,-0.762 -7.327,-1.07 a 28.992,28.992 0 0 1 -25.479,-29.794 28.646,28.646 0 0 1 9.643,-20.878 29.256,29.256 0 0 1 22.777,-7.139 c 3.325,0.412 6.7,0.906 10.04,1.465 58.706,9.878 110.173,41.505 144.925,89.061 34.911,47.776 48.789,105.877 39.076,163.6 -9.713,57.723 -41.839,108.074 -90.461,141.795 a 223.743,223.743 0 0 1 -128.1,39.923 h -0.022 c -6.638,0 -13.336,-0.295 -19.909,-0.875 -5.973,-0.529 -12.045,-1.309 -18.054,-2.324 A 219.986,219.986 0 0 1 554.932,675.911 231.592,231.592 0 0 1 537.265,646.625 c -29.742,-58.734 -31.2,-127.371 -4.206,-198.492 9.253,-24.393 20.637,-47.989 31.436,-69.617 l 169.161,-309.071 4,-4.834 0.163,-0.323 Q 718.028,53.724 697.207,44.915 A 497.55,497.55 0 0 0 151.73,855.205 q 2.55,2.55 5.134,5.054 L 427.852,357.852 H 137.966 l 50.885,85.7 a 26.221,26.221 0 0 1 3.168,20.311 28.074,28.074 0 0 1 -26.983,21.028 26.367,26.367 0 0 1 -22.562,-12.358 L 66.855,345.255 a 26.276,26.276 0 0 1 -3.968,-14.206 l 0.024,-1.1 a 26.888,26.888 0 0 1 26.627,-26.04 h 383.975 c 6.928,0 15.264,2.456 19.5,5.8 l 0.41,0.3 a 30.418,30.418 0 0 1 9.1,39.083 L 209.348,892.849 a 30.389,30.389 0 0 1 -5.773,7.563 497.555,497.555 0 0 0 651.8,-748.85 500.3,500.3 0 0 0 -67.124,-56.341 z"
       id="path6" />
    <path
       class="cls-2"
       d="m 156.8,860.38 a 501.372,501.372 0 0 0 46.614,40.2 c 0.056,-0.053 0.106,-0.112 0.162,-0.166 a 501.141,501.141 0 0 1 -46.711,-40.153 z"
       id="path8" />
    <path
       class="cls-2"
       d="m 502.525,349.1 a 30.418,30.418 0 0 0 -9.1,-39.083 l -0.41,-0.3 c -4.235,-3.341 -12.571,-5.8 -19.5,-5.8 H 89.538 a 26.888,26.888 0 0 0 -26.627,26.04 l -0.024,1.1 a 26.276,26.276 0 0 0 3.968,14.206 l 75.619,127.273 a 26.367,26.367 0 0 0 22.562,12.358 28.074,28.074 0 0 0 26.983,-21.028 26.221,26.221 0 0 0 -3.168,-20.311 l -50.885,-85.7 H 427.852 L 156.864,860.259 a 501.141,501.141 0 0 0 46.711,40.153 30.389,30.389 0 0 0 5.773,-7.563 z"
       id="path10" />
    <path
       class="cls-2"
       d="m 771.494,334.953 c -3.337,-0.559 -6.715,-1.053 -10.04,-1.465 a 29.256,29.256 0 0 0 -22.777,7.139 28.646,28.646 0 0 0 -9.643,20.878 28.992,28.992 0 0 0 25.479,29.795 c 2.47,0.308 4.934,0.667 7.327,1.07 a 166.542,166.542 0 0 1 107.178,65.578 c 25.851,35.116 36.169,77.73 29.056,120 a 157.311,157.311 0 0 1 -61.433,100.062 165.165,165.165 0 0 1 -99.754,33.08 c -4.971,0 -10,-0.222 -14.959,-0.664 -4.456,-0.394 -8.938,-0.97 -13.326,-1.716 a 162.391,162.391 0 0 1 -105.81,-66.1 156.61,156.61 0 0 1 -27.247,-67.4 c -7.23,-47.815 7.116,-108.59 38.38,-162.578 0.218,-0.4 5.337,-9.661 13.646,-24.684 37.2,-67.263 149.554,-270.414 159.223,-288.384 l 1.354,-4.086 A 493.769,493.769 0 0 0 737.654,64.611 l -4,4.834 -169.162,309.068 c -10.8,21.628 -22.183,45.224 -31.436,69.617 -26.99,71.121 -25.536,139.758 4.206,198.492 a 231.592,231.592 0 0 0 17.667,29.286 219.986,219.986 0 0 0 144.017,90.222 c 6.009,1.015 12.081,1.795 18.054,2.324 6.573,0.58 13.271,0.875 19.909,0.875 h 0.022 a 223.743,223.743 0 0 0 128.1,-39.923 c 48.622,-33.721 80.748,-84.08 90.461,-141.795 9.713,-57.715 -4.165,-115.821 -39.076,-163.6 -34.749,-47.553 -86.216,-79.18 -144.922,-89.058 z"
       id="path12" />
    <path
       class="cls-3"
       d="M 865.748,845.705 H 560.006 a 30.872,30.872 0 0 0 -30.872,30.872 v 0.624 a 30.872,30.872 0 0 0 30.872,30.872 h 234.557 a 500.844,500.844 0 0 0 61.308,-52.2 q 5.021,-5.022 9.877,-10.168 z"
       id="path14" />
  </g>
</svg>
