<svg width="256" height="256" viewBox="0 0 256 256" fill="none" xmlns="http://www.w3.org/2000/svg">
<path d="M215.5 23H40.5C31.3873 23 24 30.3873 24 39.5V214.5C24 223.613 31.3873 231 40.5 231H215.5C224.613 231 232 223.613 232 214.5V39.5C232 30.3873 224.613 23 215.5 23Z" fill="#401D4B"/>
<path d="M215 24H41C32.1634 24 25 31.1634 25 40V210C25 218.837 32.1634 226 41 226H215C223.837 226 231 218.837 231 210V40C231 31.1634 223.837 24 215 24Z" fill="#813B96"/>
<path fill-rule="evenodd" clip-rule="evenodd" d="M176 97C176 110.255 165.255 121 152 121C138.745 121 128 110.255 128 97C128 83.7452 138.745 73 152 73C165.255 73 176 83.7452 176 97ZM150 110V106H154V110H150ZM158.14 96.5L156.34 98.34C154.9 99.8 154 101 154 104H150V103C150 100.8 150.9 98.8 152.34 97.34L154.82 94.82C155.56 94.1 156 93.1 156 92C156 89.8 154.2 88 152 88C149.8 88 148 89.8 148 92H144C144 87.58 147.58 84 152 84C156.42 84 160 87.58 160 92C160 93.76 159.28 95.36 158.14 96.5Z" fill="white"/>
<path d="M125.001 126.996C125.001 118.714 118.285 112 110.001 112C101.717 112 95.0012 118.714 95.0012 126.996C95.0012 135.278 101.717 141.992 110.001 141.992C118.285 141.992 125.001 135.278 125.001 126.996Z" fill="white"/>
<path d="M140 172.001C140 172.001 140 151.975 110.001 151.99C80 152.006 80 172.001 80 172.001V177H140V172.001Z" fill="white"/>
</svg>
